<svg width="340" height="90" viewBox="0 0 340 90" fill="none" xmlns="http://www.w3.org/2000/svg">
<mask id="mask0_280_1291" style="mask-type:luminance" maskUnits="userSpaceOnUse" x="22" y="26" width="67" height="64">
<path d="M22.167 26.7622H88.718V89.0479H22.167V26.7622Z" fill="white"/>
</mask>
<g mask="url(#mask0_280_1291)">
<path fill-rule="evenodd" clip-rule="evenodd" d="M50.1748 47.278C27.5579 34.7193 13.0127 61.6937 30.7286 78.0303C34.2999 73.3133 37.6369 67.2004 40.4368 57.9372C42.9725 49.5576 51.3383 46.7999 59.2779 48.0208C65.6193 48.9941 65.9901 52.5457 72.8301 52.9427C78.5621 53.2757 82.2187 51.2651 80.7186 60.1783C79.7767 65.7789 76.0179 67.8663 71.2831 68.8567C63.5183 70.4745 63.1262 71.2685 64.8735 78.9779C65.7173 82.696 66.7188 86.1623 67.9164 89.3084C70.7675 89.3297 73.7592 89.2401 76.9342 89.0224C112.907 25.2426 49.6208 9.18778 50.1748 47.278Z" fill="white"/>
</g>
<mask id="mask1_280_1291" style="mask-type:luminance" maskUnits="userSpaceOnUse" x="35" y="52" width="30" height="38">
<path d="M35.2588 52.9893H64.7158V89.0476H35.2588V52.9893Z" fill="white"/>
</mask>
<g mask="url(#mask1_280_1291)">
<path fill-rule="evenodd" clip-rule="evenodd" d="M35.5107 81.6556C41.1788 85.203 48.9394 87.8582 59.1505 88.8699C59.2485 85.7707 58.4729 82.5051 56.8577 79.0901C55.2553 75.6922 53.7765 74.6378 57.8208 72.3711C60.1946 71.0435 62.0357 70.9026 62.6835 68.6017C63.7148 64.9306 64.597 64.1622 61.7587 62.7877C60.4887 62.1772 59.3636 61.3832 58.3578 60.4484C55.7198 57.9853 54.5351 57.6096 50.772 58.7067C49.1056 57.2938 47.6737 55.5009 46.3398 53.5415C44.5158 56.1668 44.3155 59.0055 44.3069 61.8741C42.8196 64.0171 41.6306 66.6296 40.791 69.2719C39.1162 74.5268 39.2312 76.7337 35.5107 81.6556Z" fill="white"/>
</g>
<path fill-rule="evenodd" clip-rule="evenodd" d="M3.96921 41.6687C8.45679 39.1501 14.9261 42.1596 18.4164 48.4005C21.911 54.6372 21.1056 61.7362 16.618 64.2548C12.1347 66.7733 5.66537 63.7638 2.17502 57.5229C-1.31959 51.2862 -0.518383 44.1873 3.96921 41.6687Z" fill="white"/>
<path fill-rule="evenodd" clip-rule="evenodd" d="M15.2919 15.2486C20.406 12.508 27.6338 16.0511 31.4353 23.1629C35.241 30.2747 34.1756 38.2658 29.0572 41.0064C23.9432 43.7469 16.7153 40.2038 12.9139 33.092C9.11666 25.9803 10.1821 17.9934 15.2919 15.2486Z" fill="white"/>
<path fill-rule="evenodd" clip-rule="evenodd" d="M35.9498 1.17074C40.757 -1.92839 48.3258 1.33723 52.8603 8.46607C57.3905 15.5907 57.1689 23.8806 52.3617 26.9797C47.5587 30.0789 39.9899 26.809 35.4554 19.6844C30.921 12.5556 31.1426 4.26987 35.9498 1.17074Z" fill="white"/>
<path fill-rule="evenodd" clip-rule="evenodd" d="M64.6603 2.31836C68.9774 -0.272783 75.7833 2.45923 79.8533 8.42271C83.9275 14.3819 83.7272 21.3144 79.4101 23.9098C75.093 26.501 68.287 23.7689 64.2128 17.8055C60.1428 11.842 60.3389 4.90951 64.6603 2.31836Z" fill="white"/>
<path d="M125.788 57.3098C125.788 58.4282 125.797 59.6234 125.822 60.8955C125.856 62.1719 125.98 65.2454 126.197 70.1161C124.808 70.1161 123.406 70.0563 121.987 69.9453C120.576 69.8429 119.332 69.6977 118.254 69.5185C117.674 64.6136 117.239 59.8881 116.958 55.3461C116.685 50.8042 116.549 46.3945 116.549 42.1129C116.549 41.1567 116.57 40.1408 116.617 39.0565C116.66 37.9765 116.745 36.7428 116.873 35.3512C118.475 34.5572 120.418 33.9126 122.703 33.4217C124.996 32.9223 127.254 32.6704 129.47 32.6704C133.221 32.6704 136.119 33.4687 138.164 35.0609C140.21 36.6446 141.233 38.8516 141.233 41.6861C141.233 45.1352 139.856 48.2685 137.107 51.0774C134.354 53.8777 130.583 55.9566 125.788 57.3098ZM131.738 43.3594C131.738 41.5751 131.388 40.2176 130.698 39.2955C130.003 38.365 128.963 37.8954 127.578 37.8954C127.305 37.8954 127.092 37.8954 126.947 37.8954C126.811 37.8954 126.683 37.9125 126.572 37.9466C126.376 40.0084 126.219 42.1471 126.095 44.3668C125.98 46.5866 125.891 48.9174 125.822 51.3506C127.787 50.8298 129.266 49.9077 130.255 48.5844C131.243 47.2525 131.738 45.5109 131.738 43.3594Z" fill="white"/>
<path d="M169.707 67.4351C168.82 67.7083 165.965 68.0242 161.149 68.3913C156.342 68.7669 152.319 68.9548 149.08 68.9548C148.317 64.0627 147.618 58.3469 146.983 51.8114C146.357 45.2802 146.012 39.8417 145.943 35.5047C150.682 34.6082 154.795 33.9636 158.285 33.5752C161.784 33.191 165.211 32.9946 168.565 32.9946C168.565 34.1472 168.488 35.3595 168.343 36.6316C168.207 37.908 167.985 39.2398 167.678 40.6272C165.961 40.6272 164.175 40.6613 162.325 40.7296C160.484 40.7894 158.562 40.879 156.564 41.0028C156.495 41.6773 156.444 42.4542 156.41 43.3421C156.385 44.2215 156.359 45.5363 156.325 47.2865C157.893 46.8212 159.462 46.4797 161.03 46.262C162.598 46.0485 164.201 45.9375 165.837 45.9375C166.084 47.0218 166.267 48.1317 166.383 49.2672C166.506 50.4069 166.57 51.7516 166.57 53.2969C164.819 53.2969 163.08 53.3567 161.354 53.4677C159.636 53.5701 157.961 53.7152 156.325 53.8945C156.359 55.2862 156.402 56.6436 156.461 57.9755C156.529 59.2988 156.623 60.5538 156.751 61.7491C157.638 61.7491 159.513 61.5741 162.377 61.2197C165.24 60.8697 167.393 60.5495 168.837 60.2635C169.084 60.9124 169.289 61.971 169.451 63.4395C169.621 64.8994 169.707 66.2313 169.707 67.4351Z" fill="white"/>
<path d="M189.562 64.9432C188.207 65.2847 186.877 65.5365 185.573 65.6945C184.264 65.8439 182.794 65.9165 181.158 65.9165C181.158 61.605 181.03 56.9435 180.783 51.932C180.544 46.9247 180.207 42.6047 179.777 38.972C179.376 38.9976 178.605 39.0659 177.458 39.1769C176.321 39.2793 174.803 39.4245 172.907 39.6038C172.498 38.5366 172.182 37.431 171.969 36.2912C171.752 35.1429 171.646 34.033 171.646 32.9616C175.86 32.0053 179.883 31.3223 183.715 30.9125C187.542 30.4942 191.872 30.2808 196.704 30.2808C196.862 30.8058 196.977 31.3992 197.045 32.0566C197.122 32.7182 197.165 33.4482 197.165 34.2422C197.165 34.8014 197.122 35.4033 197.045 36.0521C196.977 36.701 196.849 37.4139 196.67 38.1865C195.498 38.1865 194.356 38.1951 193.244 38.2036C192.14 38.2164 191.049 38.2548 189.971 38.3231C190.094 40.227 190.184 42.212 190.244 44.2823C190.312 46.3442 190.346 48.4657 190.346 50.6513C190.346 52.6918 190.282 54.886 190.158 57.2423C190.031 59.5987 189.835 62.1685 189.562 64.9432Z" fill="white"/>
<path d="M226.518 34.1559C226.766 39.2102 226.979 45.131 227.149 51.914C227.32 58.6886 227.405 64.6307 227.405 69.7404C225.709 69.7404 223.953 69.6593 222.137 69.5014C220.318 69.352 219.009 69.1599 218.217 68.9208C218.217 66.9188 218.2 64.5795 218.165 61.903C218.14 59.2179 218.114 56.503 218.08 53.7581C216.567 53.7923 215.152 53.8521 213.836 53.9289C212.514 53.9972 211.27 54.1125 210.102 54.2704C210.068 55.8072 210.038 57.4293 210.017 59.1368C210.004 60.8443 210 63.0897 210 65.8644C209.203 66.1162 207.98 66.3339 206.335 66.5132C204.686 66.6968 203.203 66.7864 201.886 66.7864C201.238 58.9319 200.782 52.6056 200.522 47.7989C200.258 42.9838 200.13 38.8985 200.13 35.539C200.867 35.0524 201.788 34.6682 202.891 34.395C204.004 34.1133 205.146 33.9681 206.318 33.9681C207.17 33.9681 207.946 34.0151 208.653 34.1047C209.369 34.1986 210.077 34.3395 210.784 34.5316C210.656 35.9232 210.55 37.7076 210.46 39.8932C210.367 42.0788 210.294 44.5291 210.239 47.2355C211.59 47.022 212.898 46.8427 214.159 46.7061C215.421 46.5695 216.682 46.4842 217.944 46.45C217.876 43.7778 217.778 41.2891 217.654 38.9882C217.539 36.6916 217.42 34.7706 217.296 33.2339C218.033 33.0546 218.715 32.918 219.342 32.8241C219.977 32.7216 220.629 32.6704 221.302 32.6704C222.291 32.6704 223.245 32.8027 224.166 33.0631C225.087 33.3278 225.871 33.6906 226.518 34.1559Z" fill="white"/>
<path d="M246.596 33.0986C250.287 33.0986 253.142 34.311 255.153 36.7356C257.173 39.1518 258.188 42.5753 258.188 47.0148C258.188 49.4182 257.864 51.8599 257.216 54.34C256.568 56.8245 255.673 59.0144 254.54 60.914C253.116 63.202 251.39 64.9394 249.357 66.1219C247.333 67.3043 245.045 67.8977 242.488 67.8977C238.793 67.8977 235.916 66.4762 233.862 63.6289C231.803 60.7731 230.776 56.9141 230.776 52.052C230.776 46.477 232.234 41.9222 235.157 38.3919C238.077 34.8659 241.891 33.0986 246.596 33.0986ZM244.431 61.8872C245.816 61.8872 246.843 60.9396 247.516 59.0357C248.198 57.1233 248.539 53.9601 248.539 49.5419C248.539 45.7513 248.237 43.0662 247.636 41.4825C247.031 39.9031 246.025 39.1091 244.618 39.1091C243.195 39.1091 242.113 40.1293 241.362 42.1655C240.612 44.1932 240.237 47.0575 240.237 50.7543C240.237 54.2632 240.595 56.9952 241.311 58.9503C242.036 60.9097 243.076 61.8872 244.431 61.8872Z" fill="white"/>
<path d="M284.253 34.0718C284.935 37.2734 285.404 39.92 285.668 42.0117C285.928 44.1077 286.06 46.0841 286.06 47.9367C286.06 55.3943 284.884 61.0504 282.531 64.9094C280.179 68.7555 276.693 70.6808 272.081 70.6808C268.51 70.6808 265.8 69.3062 263.95 66.5657C262.109 63.8251 261.188 59.8808 261.188 54.7326C261.188 51.5567 261.461 48.274 262.007 44.8803C262.561 41.4909 263.136 39.2711 263.728 38.221C264.308 38.0759 265.015 37.9478 265.859 37.8454C266.712 37.7344 267.534 37.6746 268.331 37.6746C269.286 37.6746 270.108 37.7387 270.803 37.8624C271.493 37.9777 272.03 38.1442 272.405 38.3576C271.971 40.8634 271.647 43.3564 271.434 45.8365C271.216 48.3081 271.11 50.6517 271.11 52.8714C271.11 56.5725 271.314 59.4624 271.723 61.5456C272.141 63.6288 272.738 64.6703 273.513 64.6703C274.455 64.6703 275.171 63.4751 275.661 61.0846C276.16 58.6941 276.411 55.2705 276.411 50.8054C276.411 48.5856 276.258 46.2292 275.951 43.7363C275.644 41.2348 275.167 38.5924 274.519 35.8134C275.721 35.2926 277.264 34.87 279.139 34.5499C281.014 34.234 282.719 34.0718 284.253 34.0718Z" fill="white"/>
<path d="M309.775 51.1652C310.478 52.1555 311.003 53.1971 311.343 54.2899C311.684 55.3827 311.855 56.5609 311.855 57.8244C311.855 61.0004 310.713 63.63 308.428 65.7131C306.153 67.7835 303.357 68.8208 300.041 68.8208C296.381 68.8208 293.325 67.6853 290.87 65.4229C288.424 63.1604 287.205 60.4711 287.205 57.3634C288.194 56.8768 289.387 56.4542 290.785 56.0999C292.183 55.737 293.346 55.5535 294.28 55.5535C294.28 57.9013 294.714 59.7881 295.592 61.2224C296.466 62.6567 297.659 63.3739 299.172 63.3739C300.237 63.3739 301.064 63.075 301.644 62.4689C302.232 61.867 302.53 61.0431 302.53 59.993C302.53 59.1051 302.228 58.2428 301.627 57.3976C301.034 56.5438 299.705 55.3315 297.638 53.7606C296.104 52.5909 294.966 51.6518 294.228 50.9432C293.487 50.226 292.856 49.5345 292.336 48.86C291.595 47.8142 291.041 46.7256 290.666 45.5987C290.299 44.4717 290.12 43.2679 290.12 41.9788C290.12 38.8967 291.215 36.3867 293.41 34.4486C295.613 32.5021 298.499 31.5288 302.07 31.5288C305.241 31.5288 307.785 32.2929 309.707 33.8169C311.625 35.3451 312.895 37.599 313.508 40.5786C312.622 41.172 311.608 41.633 310.474 41.9617C309.336 42.2818 307.84 42.4996 305.991 42.6105C305.718 40.7109 305.258 39.3449 304.61 38.5125C303.962 37.6716 303.067 37.249 301.934 37.249C301.226 37.249 300.664 37.4795 300.246 37.932C299.837 38.3759 299.632 38.9693 299.632 39.7078C299.632 40.7237 299.939 41.697 300.553 42.6276C301.166 43.5497 302.517 44.7962 304.61 46.3671C306.144 47.5068 307.261 48.4161 307.968 49.0991C308.684 49.7735 309.285 50.4608 309.775 51.1652Z" fill="white"/>
<path d="M340 67.437C339.113 67.7102 336.258 68.0261 331.442 68.3932C326.635 68.7689 322.612 68.9567 319.373 68.9567C318.61 64.0647 317.911 58.3488 317.276 51.8133C316.65 45.2821 316.305 39.8437 316.236 35.5066C320.975 34.6102 325.088 33.9656 328.578 33.5771C332.077 33.1929 335.504 32.9966 338.858 32.9966C338.858 34.1492 338.781 35.3615 338.636 36.6336C338.5 37.9099 338.278 39.2418 337.971 40.6291C336.254 40.6291 334.468 40.6633 332.618 40.7316C330.777 40.7914 328.855 40.881 326.857 41.0048C326.788 41.6793 326.737 42.4562 326.703 43.3441C326.678 44.2235 326.652 45.5382 326.618 47.2884C328.186 46.8231 329.754 46.4816 331.323 46.2639C332.891 46.0505 334.494 45.9395 336.13 45.9395C336.377 47.0238 336.56 48.1336 336.676 49.2691C336.799 50.4089 336.863 51.7536 336.863 53.2989C335.111 53.2989 333.373 53.3586 331.647 53.4696C329.929 53.5721 328.254 53.7172 326.618 53.8965C326.652 55.2881 326.695 56.6456 326.754 57.9774C326.822 59.3007 326.916 60.5558 327.044 61.751C327.93 61.751 329.806 61.576 332.67 61.2217C335.533 60.8717 337.686 60.5515 339.13 60.2655C339.377 60.9143 339.582 61.973 339.744 63.4415C339.914 64.9014 340 66.2332 340 67.437Z" fill="white"/>
</svg>
