<svg width="257" height="340" viewBox="0 0 257 340" fill="none" xmlns="http://www.w3.org/2000/svg">
<g clip-path="url(#clip0_174_613)">
<path d="M7.3985 336.503C7.3985 332.444 10.7109 329.153 14.797 329.153H40.6917V336.503H7.3985Z" fill="#9D8E7E"/>
<path d="M33.3402 267.759C31.2251 259.918 23.1113 255.264 15.2176 257.365C7.32392 259.466 2.63945 267.526 4.75456 275.368L18.1587 325.062C20.2738 332.904 28.3875 337.557 36.2812 335.456C44.1749 333.355 48.8594 325.295 46.7443 317.453L33.3402 267.759Z" fill="#9D8E7E"/>
<path d="M114.386 336.503C114.386 332.444 111.074 329.153 106.988 329.153H81.0929V336.503H114.386Z" fill="#9D8E7E"/>
<path d="M88.4446 267.759C90.5597 259.918 98.6735 255.264 106.567 257.365C114.461 259.466 119.145 267.526 117.03 275.368L103.626 325.062C101.511 332.904 93.3973 337.557 85.5036 335.456C77.6099 333.355 72.9254 325.295 75.0405 317.453L88.4446 267.759Z" fill="#9D8E7E"/>
<path d="M37.5015 93.5999C38.044 85.8989 44.4911 79.9269 52.2624 79.9269H69.8128C77.5841 79.9269 84.0312 85.8989 84.5737 93.5999L100.621 321.437C101.221 329.939 94.44 337.163 85.8607 337.163H36.2144C27.6356 337.163 20.8547 329.939 21.4535 321.437L37.5015 93.5999Z" fill="#B9A592"/>
<path d="M33.2932 235.995C44.9621 229.937 57.2681 191.897 61.9624 173.634V335.325C52.6779 302.056 33.946 235.615 33.2932 235.995Z" fill="white"/>
<path d="M89.7068 235.995C78.4143 229.937 66.5054 191.897 61.9624 173.634V335.325C70.9473 302.056 89.0751 235.615 89.7068 235.995Z" fill="white"/>
<path d="M33.2932 326.138H22.1955C19.1309 326.138 14.797 331.074 14.797 337.163H40.6917C40.6917 331.074 36.3578 326.138 33.2932 326.138Z" fill="white"/>
<path d="M22.1955 337.163C22.1955 334.406 22.1955 329.813 24.0451 328.894" stroke="black"/>
<path d="M32.3684 337.163C32.3684 334.406 32.3684 329.813 30.5188 328.894" stroke="black"/>
<path d="M98.0301 326.138H86.9323C83.8678 326.138 79.5338 331.074 79.5338 337.163H105.429C105.429 331.074 101.095 326.138 98.0301 326.138Z" fill="white"/>
<path d="M87.8571 337.163C87.8571 334.406 87.8571 329.813 89.7068 328.894" stroke="black"/>
<path d="M98.0301 337.163C98.0301 334.406 98.0301 329.813 96.1805 328.894" stroke="black"/>
<path d="M33.4571 60.6341C30.5156 46.9157 41.0461 33.9918 55.1656 33.9918H66.9096C81.0291 33.9918 91.5596 46.9157 88.6181 60.6341L72.703 134.856C71.5301 140.326 66.6671 144.236 61.0376 144.236C55.4081 144.236 50.545 140.326 49.3722 134.856L33.4571 60.6341Z" fill="#B9A592"/>
<path d="M49.015 97.3821C50.5473 97.3821 51.7895 96.1481 51.7895 94.626C51.7895 93.1038 50.5473 91.8699 49.015 91.8699C47.4828 91.8699 46.2406 93.1038 46.2406 94.626C46.2406 96.1481 47.4828 97.3821 49.015 97.3821Z" fill="black"/>
<path d="M73.0601 97.3821C74.5924 97.3821 75.8346 96.1481 75.8346 94.626C75.8346 93.1038 74.5924 91.8699 73.0601 91.8699C71.5279 91.8699 70.2857 93.1038 70.2857 94.626C70.2857 96.1481 71.5279 97.3821 73.0601 97.3821Z" fill="black"/>
<path d="M56.3837 139.448C59.7966 140.334 60.9083 137.971 61.0376 136.679V95.5447H59.5348C59.5348 95.5447 57.231 105.652 55.1718 111.58C53.3647 116.782 49.015 123.941 49.015 123.941L51.7298 135.018C51.8591 136.125 52.9708 138.562 56.3837 139.448Z" fill="white"/>
<path d="M65.6915 139.448C62.2786 140.334 61.1669 137.971 61.0376 136.679V95.5447H62.6406C62.6406 95.5447 64.7236 105.63 66.8032 111.58C68.614 116.76 73.0602 123.941 73.0602 123.941L70.3454 135.018C70.2161 136.125 69.1044 138.562 65.6915 139.448Z" fill="white"/>
<path d="M61.0376 140.561C65.1237 140.561 68.4361 138.916 68.4361 136.886C68.4361 134.857 65.1237 133.211 61.0376 133.211C56.9515 133.211 53.6391 134.857 53.6391 136.886C53.6391 138.916 56.9515 140.561 61.0376 140.561Z" fill="black"/>
<path d="M35.1429 31.2357H48.4075C51.7033 31.2357 53.3537 35.194 51.0234 37.509L37.7586 50.6861C35.4282 53.001 31.4436 51.3615 31.4436 48.0875V34.9105C31.4436 32.881 33.0998 31.2357 35.1429 31.2357Z" fill="#9D8E7E"/>
<path d="M86.9323 31.2357H73.6676C70.3719 31.2357 68.7215 35.194 71.0518 37.509L84.3166 50.6861C86.6469 53.001 90.6316 51.3615 90.6316 48.0875V34.9105C90.6316 32.881 88.9753 31.2357 86.9323 31.2357Z" fill="#9D8E7E"/>
</g>
<path d="M127.686 337.474C127.686 331.878 132.224 327.342 137.821 327.342H168.229V337.474H127.686Z" fill="#9E5C40"/>
<path d="M137.473 248.636L137.473 248.636C127.996 250.95 122.545 260.409 125.296 269.764L140.619 321.867C143.371 331.222 153.283 336.93 162.759 334.617L162.759 334.617C172.235 332.303 177.687 322.844 174.936 313.489L159.613 261.386C156.861 252.031 146.949 246.323 137.473 248.636Z" fill="#9E5C40"/>
<path d="M249.314 337.474C249.314 331.878 244.776 327.342 239.179 327.342H208.771V337.474H249.314Z" fill="#9E5C40"/>
<path d="M217.196 261.468C219.961 252.068 229.922 246.332 239.444 248.657C248.966 250.981 254.445 260.486 251.68 269.887L236.282 322.243C233.517 331.643 223.557 337.379 214.035 335.054C204.512 332.73 199.034 323.225 201.799 313.824L217.196 261.468Z" fill="#9E5C40"/>
<path d="M164.168 149.591C165.695 136.458 176.823 126.553 190.049 126.553C203.342 126.553 214.503 136.554 215.95 149.762L233.729 312.041C235.162 325.124 224.912 336.553 211.746 336.553H167.262C154.037 336.553 143.769 325.027 145.296 311.895L164.168 149.591Z" fill="#D69A6E"/>
<path d="M163.621 238C174.34 232.755 186.031 211.444 190.343 195.632V336.688C181.815 307.883 164.221 237.671 163.621 238Z" fill="#F6D5A9"/>
<path d="M215.221 236.691C205.095 231.377 194.417 211.652 190.343 195.632V336.553C198.4 307.368 214.655 236.358 215.221 236.691Z" fill="#F6D5A9"/>
<path d="M168.229 326.421H157.171C154.118 326.421 149.8 331.37 149.8 337.474H175.6C175.6 331.37 171.282 326.421 168.229 326.421Z" fill="#482712"/>
<path d="M157.171 337.474C157.171 334.71 157.171 330.105 159.014 329.184" stroke="black"/>
<path d="M167.307 337.474C167.307 334.71 167.307 330.105 165.464 329.184" stroke="black"/>
<path d="M219.829 326.421H208.771C205.718 326.421 201.4 331.37 201.4 337.474H227.2C227.2 331.37 222.882 326.421 219.829 326.421Z" fill="#482712"/>
<path d="M209.693 337.474C209.693 334.71 209.693 330.105 211.536 329.184" stroke="black"/>
<path d="M219.829 337.474C219.829 334.71 219.829 330.105 217.986 329.184" stroke="black"/>
<path d="M188.5 159.526C208.042 159.526 223.883 143.691 223.883 124.158C223.883 104.624 208.042 88.7894 188.5 88.7894C168.959 88.7894 153.117 104.624 153.117 124.158C153.117 143.691 168.959 159.526 188.5 159.526Z" fill="#D69A6E"/>
<path d="M188.5 88.7894V184.579C172.548 184.579 159.69 178.543 151.643 172.422C149.885 171.085 148.356 169.744 147.076 168.46C145.943 167.327 145.005 166.238 144.271 165.237L146.114 162.243L153.486 118.397L188.5 88.7894Z" fill="#D69A6E"/>
<path d="M188.5 184.579C211.016 184.579 227.368 172.784 232.729 165.467L230.886 162.474L223.514 118.397L188.5 88.7894V184.579Z" fill="#D69A6E"/>
<path d="M142.429 160.632C143.903 159.526 147.804 153.877 148.418 151.421C148.879 155.105 149.155 161.737 148.418 162.474C147.681 163.21 143.504 162.013 142.429 160.632Z" fill="#D69A6E"/>
<path d="M233.644 155.105C232.17 154 228.27 148.351 227.655 145.895C227.194 149.579 226.918 156.211 227.655 156.947C228.392 157.684 232.569 156.487 233.644 155.105Z" fill="#D69A6E"/>
<path d="M234.566 160.632C233.092 159.526 229.191 153.877 228.577 151.421C228.116 155.105 227.839 161.737 228.577 162.474C229.314 163.21 233.491 162.013 234.566 160.632Z" fill="#D69A6E"/>
<path d="M143.35 155.105C144.824 154 148.725 148.351 149.339 145.895C149.8 149.579 150.076 156.211 149.339 156.947C148.602 157.684 144.425 156.487 143.35 155.105Z" fill="#D69A6E"/>
<path d="M155.329 150.5C153.946 153.724 149.8 156.947 146.114 156.947" stroke="black"/>
<path d="M154.868 143.592C153.025 146.355 151.643 147.276 148.879 148.197" stroke="black"/>
<path d="M155.329 157.868C153.639 160.632 149.8 162.013 146.114 162.013" stroke="black"/>
<path d="M220.75 150.5C222.132 153.724 226.279 156.947 229.964 156.947" stroke="black"/>
<path d="M221.211 143.592C223.054 146.355 224.436 147.276 227.2 148.197" stroke="black"/>
<path d="M220.75 157.868C222.439 160.632 226.279 162.013 229.964 162.013" stroke="black"/>
<path d="M193.107 133.641C193.107 136.969 197.49 139.666 201.475 140.021C206.629 140.479 207.85 136.969 207.85 133.641C207.85 130.313 204.02 126.553 200.279 126.553C196.538 126.553 193.107 130.313 193.107 133.641Z" fill="#9E5C40"/>
<path d="M177.443 137.529C178.97 137.529 180.207 136.395 180.207 134.996C180.207 133.597 178.97 132.463 177.443 132.463C175.916 132.463 174.679 133.597 174.679 134.996C174.679 136.395 175.916 137.529 177.443 137.529Z" fill="black"/>
<path d="M201.4 137.529C202.927 137.529 204.164 136.395 204.164 134.996C204.164 133.597 202.927 132.463 201.4 132.463C199.873 132.463 198.636 133.597 198.636 134.996C198.636 136.395 199.873 137.529 201.4 137.529Z" fill="black"/>
<path d="M183.715 171.49C187.9 172.378 189.263 170.009 189.421 168.713V127.474H187.579C187.579 127.474 184.753 137.607 182.228 143.55C180.012 148.765 174.679 155.942 174.679 155.942L178.008 167.048C178.166 168.158 179.529 170.601 183.715 171.49Z" fill="#9E5C40"/>
<path d="M194.772 171.49C190.848 172.378 189.57 170.009 189.421 168.713V127.474H191.264C191.264 127.474 193.659 137.585 196.05 143.55C198.132 148.744 203.243 155.942 203.243 155.942L200.122 167.048C199.973 168.158 198.695 170.601 194.772 171.49Z" fill="#9E5C40"/>
<path d="M189.421 170.199C186.454 173.034 180.207 171.684 178.364 167.943L175.139 158.789" stroke="black"/>
<path d="M188.5 170.199C191.468 173.034 197.714 171.684 199.557 167.943L202.782 158.789" stroke="black"/>
<path d="M182.05 166.158C182.05 164.632 183.288 163.395 184.814 163.395H194.029C195.555 163.395 196.793 164.632 196.793 166.158V167.079H182.05V166.158Z" fill="black"/>
<path d="M189.421 170.763C193.493 170.763 196.793 169.114 196.793 167.079C196.793 165.044 193.493 163.395 189.421 163.395C185.35 163.395 182.05 165.044 182.05 167.079C182.05 169.114 185.35 170.763 189.421 170.763Z" fill="black"/>
<path d="M171.646 66.6842C175.793 66.6842 175.332 97.9606 175.332 97.9606C164.749 100.624 156.321 120.446 154.341 122.408C144.816 118.146 162.893 66.6842 171.646 66.6842Z" fill="#482712"/>
<path d="M205.101 66.6842C200.954 66.6842 201.415 97.9606 201.415 97.9606C211.998 100.624 220.426 120.446 222.406 122.408C231.931 118.146 213.854 66.6842 205.101 66.6842Z" fill="#482712"/>
<path d="M84.9323 337.26C84.9323 334.717 86.9857 332.655 89.5187 332.655H105.113V337.26H84.9323Z" fill="#B8B6B7"/>
<path d="M101.253 300.099C99.7176 295.192 94.4251 292.144 89.4313 293.29C84.4376 294.436 81.6337 299.343 83.1686 304.249L90.9354 329.075C92.4703 333.982 97.7629 337.03 102.757 335.884C107.75 334.738 110.554 329.831 109.019 324.925L101.253 300.099Z" fill="#B8B6B7"/>
<path d="M159.498 337.26C159.498 334.717 157.444 332.655 154.912 332.655H139.317V337.26H159.498Z" fill="#B8B6B7"/>
<path d="M143.177 300.099C144.712 295.192 150.005 292.144 154.999 293.29C159.992 294.436 162.796 299.343 161.261 304.249L153.495 329.075C151.96 333.982 146.667 337.03 141.673 335.884C136.68 334.738 133.876 329.831 135.411 324.925L143.177 300.099Z" fill="#B8B6B7"/>
<path d="M102.498 265.476C104.111 255.879 112.388 248.853 122.083 248.853C131.777 248.853 140.055 255.879 141.667 265.476L148.465 305.932C151.219 322.319 138.637 337.26 122.083 337.26C105.528 337.26 92.9465 322.319 95.7003 305.932L102.498 265.476Z" fill="#DEDBDA"/>
<path d="M102.361 293.057C110.745 290.728 118.972 281.658 122.345 274.638L122.4 337.26C115.73 324.472 102.83 292.911 102.361 293.057Z" fill="white"/>
<path d="M141.805 292.136C133.884 289.776 125.531 281.751 122.345 274.638L122.4 337.26C128.702 324.304 141.361 291.987 141.805 292.136Z" fill="white"/>
<path d="M111.849 328.051H102.304C99.6676 328.051 95.9398 332.174 95.9398 337.26H118.213C118.213 332.174 114.485 328.051 111.849 328.051Z" fill="white"/>
<path d="M101.508 337.26C101.508 334.497 101.508 329.893 103.364 328.972" stroke="black"/>
<path d="M111.717 337.26C111.717 334.497 111.717 329.893 109.861 328.972" stroke="black"/>
<path d="M142.12 328.051H132.574C129.938 328.051 126.211 332.174 126.211 337.26H148.484C148.484 332.174 144.756 328.051 142.12 328.051Z" fill="white"/>
<path d="M131.779 337.26C131.779 334.497 131.779 329.893 133.635 328.972" stroke="black"/>
<path d="M141.987 337.26C141.987 334.497 141.987 329.893 140.131 328.972" stroke="black"/>
<path d="M152.775 243.14C156.59 262.294 141.998 280.164 122.541 280.164C103.085 280.164 88.4923 262.294 92.3081 243.14L99.7387 205.841C101.797 195.51 110.832 188.073 121.326 188.073H123.756C134.251 188.073 143.286 195.51 145.344 205.841L152.775 243.14Z" fill="#E5E5E2"/>
<path d="M90.4361 183.469H107.843C114.343 183.469 117.634 191.326 113.087 195.989L95.6806 213.844C91.0809 218.562 83.0977 215.293 83.0977 208.691V190.836C83.0977 186.767 86.3832 183.469 90.4361 183.469Z" fill="#B8B6B7"/>
<path d="M154.647 183.469H137.24C130.74 183.469 127.449 191.326 131.995 195.989L149.402 213.844C154.002 218.562 161.985 215.293 161.985 208.691V190.836C161.985 186.767 158.699 183.469 154.647 183.469Z" fill="#B8B6B7"/>
<path d="M109.41 211.556C107.031 215.18 101.704 222.058 101.908 229.788C102.163 239.451 106.131 238.708 107.405 237.802C109.162 236.554 111.476 231.6 109.698 231.6C107.281 231.6 108.661 238.444 113.116 238.244C117.194 238.06 119.913 231.356 117.495 231.356C115.456 231.356 116.984 238.546 122.082 238.546C127.18 238.546 128.911 231.902 126.369 231.902C123.827 231.902 127.491 238.546 130.957 238.546C134.519 238.546 136.504 231.902 134.465 231.902C131.493 231.902 133.504 240.013 139.283 238.546C144.04 237.338 144.321 223.903 134.465 211.556" stroke="black"/>
<path d="M87.2256 247.666C96.5361 240.889 115.738 242.821 121.624 246.09V256.22C112.635 256.933 102.743 267.714 99.2651 271.876C97.9808 271.519 96.0545 266.987 96.0545 265.5C93.8072 265.5 91.3725 268.77 90.4361 270.404C89.473 265.055 91.9076 258.664 93.2453 256.137C91.6401 255.424 89.6335 257.624 88.8308 258.813C87.5466 256.673 90.1685 252.273 91.6401 250.341C90.6769 248.558 88.2958 247.815 87.2256 247.666Z" fill="white"/>
<path d="M156.94 247.704C147.629 240.853 127.51 242.785 121.624 246.09V256.266C130.614 256.987 139.817 267.669 143.295 271.876C144.579 271.515 148.111 267.233 148.111 265.731C150.358 265.731 152.793 269.037 153.729 270.689C154.693 265.28 152.258 258.82 150.92 256.266C152.525 255.545 154.532 257.769 155.335 258.971C156.619 256.807 153.997 252.361 152.525 250.408C153.489 248.604 155.869 247.854 156.94 247.704Z" fill="white"/>
<path d="M122.083 258.062V260.825C121.777 262.053 118.23 266.35 113.827 266.35" stroke="black"/>
<path d="M122.083 258.062V260.825C122.427 262.053 125.385 266.35 130.338 266.35" stroke="black"/>
<path d="M122.083 258.062C126.642 258.062 130.338 255.588 130.338 252.537C130.338 249.485 126.642 247.011 122.083 247.011C117.523 247.011 113.827 249.485 113.827 252.537C113.827 255.588 117.523 258.062 122.083 258.062Z" fill="black"/>
<defs>
<clipPath id="clip0_174_613">
<rect width="123" height="339" fill="white"/>
</clipPath>
</defs>
</svg>
