<svg width="168" height="44" viewBox="0 0 168 44" fill="none" xmlns="http://www.w3.org/2000/svg">
<mask id="mask0_174_609" style="mask-type:luminance" maskUnits="userSpaceOnUse" x="10" y="13" width="34" height="31">
<path d="M10.9529 13.2235H43.8369V44H10.9529V13.2235Z" fill="white"/>
</mask>
<g mask="url(#mask0_174_609)">
<path fill-rule="evenodd" clip-rule="evenodd" d="M24.7922 23.3607C13.6168 17.1552 6.4297 30.4837 15.1835 38.5559C16.9481 36.2251 18.597 33.2047 19.9805 28.6275C21.2334 24.487 25.3671 23.1244 29.2902 23.7277C32.4236 24.2086 32.6068 25.9635 35.9866 26.1597C38.8189 26.3242 40.6256 25.3307 39.8844 29.7349C39.419 32.5023 37.5617 33.5337 35.2222 34.0231C31.3854 34.8225 31.1917 35.2148 32.0551 39.0241C32.472 40.8613 32.9669 42.5741 33.5586 44.1286C34.9674 44.1391 36.4456 44.0948 38.0145 43.9873C55.7894 12.4726 24.5184 4.53958 24.7922 23.3607Z" fill="#81D0DF"/>
</g>
<mask id="mask1_174_609" style="mask-type:luminance" maskUnits="userSpaceOnUse" x="17" y="26" width="15" height="18">
<path d="M17.4221 26.1829H31.9773V43.9999H17.4221V26.1829Z" fill="white"/>
</mask>
<g mask="url(#mask1_174_609)">
<path fill-rule="evenodd" clip-rule="evenodd" d="M17.5461 40.3468C20.3468 42.0996 24.1815 43.4116 29.227 43.9115C29.2754 42.3801 28.8921 40.7665 28.0941 39.0791C27.3023 37.4001 26.5716 36.8791 28.57 35.7591C29.7429 35.1031 30.6526 35.0335 30.9727 33.8966C31.4823 32.0826 31.9182 31.703 30.5157 31.0238C29.8882 30.7221 29.3323 30.3298 28.8353 29.8679C27.5318 28.6508 26.9464 28.4652 25.087 29.0073C24.2636 28.3091 23.5561 27.4232 22.897 26.4551C21.9957 27.7523 21.8967 29.155 21.8925 30.5724C21.1576 31.6312 20.5701 32.9221 20.1552 34.2278C19.3276 36.8243 19.3845 37.9148 17.5461 40.3468Z" fill="#8D80D0"/>
</g>
<path fill-rule="evenodd" clip-rule="evenodd" d="M1.96126 20.5892C4.17865 19.3448 7.37524 20.8318 9.09989 23.9156C10.8266 26.9972 10.4286 30.5049 8.21124 31.7494C5.99595 32.9939 2.79936 31.5069 1.07472 28.4231C-0.652031 25.3414 -0.256142 21.8337 1.96126 20.5892Z" fill="#8D80D0"/>
<path fill-rule="evenodd" clip-rule="evenodd" d="M7.55632 7.53486C10.0833 6.1807 13.6547 7.9314 15.5331 11.4455C17.4135 14.9595 16.8871 18.9081 14.358 20.2622C11.8311 21.6164 8.25965 19.8657 6.38129 16.3516C4.50503 12.8376 5.03147 8.89112 7.55632 7.53486Z" fill="#8D80D0"/>
<path fill-rule="evenodd" clip-rule="evenodd" d="M17.7631 0.578485C20.1384 -0.95285 23.8783 0.660747 26.1189 4.18324C28.3573 7.70362 28.2478 11.7998 25.8725 13.3312C23.4993 14.8625 19.7594 13.2468 17.5188 9.72642C15.2783 6.20393 15.3878 2.10982 17.7631 0.578485Z" fill="#8D80D0"/>
<path fill-rule="evenodd" clip-rule="evenodd" d="M31.9499 1.14586C34.0831 -0.134474 37.446 1.21546 39.4571 4.16212C41.4702 7.10667 41.3712 10.5321 39.2381 11.8146C37.1049 13.0949 33.742 11.745 31.7288 8.79831C29.7178 5.85165 29.8147 2.42619 31.9499 1.14586Z" fill="#8D80D0"/>
<path d="M62.154 28.3185C62.154 28.8712 62.1582 29.4618 62.1708 30.0903C62.1877 30.721 62.2487 32.2397 62.3561 34.6464C61.6696 34.6464 60.9768 34.6168 60.2756 34.562C59.5786 34.5114 58.9637 34.4397 58.4309 34.3511C58.1446 31.9275 57.9298 29.5925 57.7908 27.3483C57.656 25.104 57.5886 22.9251 57.5886 20.8095C57.5886 20.337 57.5992 19.835 57.6223 19.2993C57.6434 18.7656 57.6855 18.156 57.7487 17.4684C58.5404 17.0761 59.5007 16.7576 60.6294 16.515C61.7623 16.2682 62.8784 16.1438 63.9734 16.1438C65.8265 16.1438 67.2584 16.5382 68.2692 17.325C69.28 18.1075 69.7854 19.198 69.7854 20.5986C69.7854 22.3029 69.1052 23.8511 67.747 25.239C66.3866 26.6227 64.523 27.6499 62.154 28.3185ZM65.0937 21.4254C65.0937 20.5437 64.921 19.873 64.5798 19.4174C64.2366 18.9576 63.7228 18.7256 63.0384 18.7256C62.9036 18.7256 62.7983 18.7256 62.7268 18.7256C62.6594 18.7256 62.5962 18.734 62.5414 18.7509C62.4446 19.7696 62.3667 20.8264 62.3056 21.9232C62.2487 23.02 62.2045 24.1717 62.1708 25.374C63.1416 25.1167 63.8723 24.6611 64.3608 24.0072C64.8494 23.3491 65.0937 22.4885 65.0937 21.4254Z" fill="#8D80D0"/>
<path d="M83.8554 33.3216C83.4174 33.4566 82.0065 33.6127 79.627 33.7941C77.2517 33.9797 75.2638 34.0725 73.6634 34.0725C73.2865 31.6553 72.9411 28.8309 72.6273 25.6016C72.3178 22.3745 72.1472 19.6872 72.1135 17.5442C74.4552 17.1013 76.4873 16.7828 78.2119 16.5908C79.9408 16.401 81.6338 16.304 83.2911 16.304C83.2911 16.8735 83.2532 17.4725 83.1816 18.1011C83.1142 18.7317 83.0047 19.3898 82.8531 20.0753C82.0044 20.0753 81.1221 20.0922 80.2082 20.126C79.2985 20.1555 78.3488 20.1998 77.3612 20.261C77.3275 20.5942 77.3022 20.9781 77.2853 21.4168C77.2727 21.8514 77.2601 22.501 77.2432 23.3658C78.0182 23.1359 78.7931 22.9672 79.568 22.8596C80.343 22.7541 81.1347 22.6993 81.9434 22.6993C82.0655 23.235 82.156 23.7834 82.2129 24.3445C82.274 24.9077 82.3056 25.5721 82.3056 26.3357C81.4401 26.3357 80.5809 26.3652 79.7281 26.42C78.8794 26.4707 78.0519 26.5424 77.2432 26.631C77.2601 27.3186 77.2811 27.9893 77.3106 28.6474C77.3443 29.3013 77.3906 29.9214 77.4538 30.512C77.8918 30.512 78.8184 30.4256 80.2335 30.2505C81.6485 30.0775 82.712 29.9193 83.4258 29.778C83.548 30.0986 83.649 30.6217 83.7291 31.3473C83.8133 32.0687 83.8554 32.7268 83.8554 33.3216Z" fill="#8D80D0"/>
<path d="M93.6657 32.0898C92.9961 32.2586 92.3391 32.383 91.6947 32.4611C91.0482 32.5349 90.3217 32.5708 89.5131 32.5708C89.5131 30.4404 89.4499 28.1371 89.3278 25.6608C89.2099 23.1866 89.0435 21.052 88.8308 19.257C88.6329 19.2697 88.2517 19.3034 87.6853 19.3583C87.123 19.4089 86.3734 19.4806 85.4363 19.5692C85.2341 19.0419 85.0783 18.4956 84.973 17.9324C84.8656 17.365 84.813 16.8166 84.813 16.2872C86.8956 15.8147 88.8835 15.4772 90.7766 15.2747C92.6676 15.068 94.8071 14.9625 97.195 14.9625C97.273 15.222 97.3298 15.5152 97.3635 15.84C97.4014 16.1669 97.4225 16.5276 97.4225 16.9199C97.4225 17.1962 97.4014 17.4937 97.3635 17.8143C97.3298 18.1349 97.2666 18.4871 97.1782 18.8689C96.5991 18.8689 96.0347 18.8731 95.4851 18.8773C94.9397 18.8837 94.4007 18.9027 93.8679 18.9364C93.929 19.8771 93.9732 20.858 94.0027 21.881C94.0364 22.8997 94.0532 23.948 94.0532 25.028C94.0532 26.0362 94.0216 27.1204 93.9605 28.2847C93.8974 29.449 93.8005 30.7188 93.6657 32.0898Z" fill="#8D80D0"/>
<path d="M111.927 16.8778C112.049 19.3752 112.154 22.3008 112.238 25.6524C112.322 28.9998 112.365 31.936 112.365 34.4608C111.526 34.4608 110.659 34.4207 109.762 34.3426C108.863 34.2688 108.216 34.1739 107.824 34.0558C107.824 33.0665 107.816 31.9106 107.799 30.5881C107.787 29.2614 107.774 27.9199 107.757 26.5636C107.009 26.5805 106.31 26.61 105.66 26.648C105.007 26.6817 104.392 26.7387 103.815 26.8167C103.798 27.5761 103.783 28.3776 103.773 29.2213C103.767 30.065 103.764 31.1745 103.764 32.5455C103.371 32.67 102.766 32.7776 101.953 32.8661C101.139 32.9568 100.406 33.0011 99.755 33.0011C99.435 29.1201 99.2096 25.9941 99.0812 23.6191C98.9506 21.2398 98.8875 19.2212 98.8875 17.5612C99.2518 17.3208 99.7066 17.1309 100.252 16.9959C100.802 16.8567 101.366 16.785 101.945 16.785C102.366 16.785 102.749 16.8082 103.099 16.8525C103.453 16.8989 103.802 16.9685 104.152 17.0634C104.089 17.7511 104.036 18.6327 103.992 19.7127C103.946 20.7926 103.91 22.0034 103.882 23.3407C104.55 23.2352 105.196 23.1466 105.82 23.0791C106.443 23.0116 107.066 22.9694 107.69 22.9525C107.656 21.6321 107.608 20.4024 107.546 19.2655C107.49 18.1307 107.431 17.1816 107.37 16.4222C107.734 16.3336 108.071 16.2661 108.38 16.2197C108.694 16.1691 109.016 16.1438 109.349 16.1438C109.838 16.1438 110.309 16.2092 110.764 16.3379C111.219 16.4686 111.606 16.6479 111.927 16.8778Z" fill="#8D80D0"/>
<path d="M121.848 16.3546C123.672 16.3546 125.082 16.9536 126.076 18.1517C127.075 19.3456 127.576 21.0372 127.576 23.2309C127.576 24.4184 127.416 25.6249 127.096 26.8504C126.775 28.078 126.333 29.16 125.773 30.0987C125.07 31.2292 124.217 32.0877 123.212 32.672C122.212 33.2562 121.081 33.5494 119.818 33.5494C117.992 33.5494 116.571 32.847 115.556 31.4402C114.539 30.0291 114.031 28.1223 114.031 25.7198C114.031 22.9651 114.751 20.7145 116.196 18.9701C117.638 17.2279 119.523 16.3546 121.848 16.3546ZM120.778 30.5796C121.463 30.5796 121.97 30.1113 122.303 29.1706C122.64 28.2256 122.808 26.6627 122.808 24.4795C122.808 22.6065 122.659 21.2798 122.362 20.4972C122.063 19.7168 121.566 19.3245 120.871 19.3245C120.168 19.3245 119.633 19.8286 119.262 20.8347C118.891 21.8366 118.706 23.2519 118.706 25.0786C118.706 26.8124 118.883 28.1623 119.237 29.1284C119.595 30.0966 120.109 30.5796 120.778 30.5796Z" fill="#8D80D0"/>
<path d="M140.455 16.8354C140.792 18.4174 141.023 19.7252 141.154 20.7587C141.282 21.7944 141.348 22.771 141.348 23.6864C141.348 27.3713 140.766 30.1661 139.604 32.0729C138.442 33.9733 136.719 34.9246 134.441 34.9246C132.676 34.9246 131.337 34.2454 130.423 32.8913C129.513 31.5371 129.058 29.5881 129.058 27.0443C129.058 25.475 129.193 23.853 129.462 22.1761C129.736 20.5014 130.02 19.4045 130.313 18.8857C130.6 18.814 130.949 18.7507 131.366 18.7C131.787 18.6452 132.194 18.6157 132.587 18.6157C133.059 18.6157 133.466 18.6473 133.809 18.7085C134.15 18.7654 134.415 18.8477 134.601 18.9532C134.386 20.1913 134.226 21.4231 134.12 22.6486C134.013 23.8699 133.96 25.0279 133.96 26.1247C133.96 27.9534 134.061 29.3814 134.264 30.4108C134.47 31.4401 134.765 31.9547 135.148 31.9547C135.613 31.9547 135.967 31.3641 136.209 30.183C136.456 29.0018 136.58 27.3101 136.58 25.1038C136.58 24.007 136.504 22.8427 136.353 21.6109C136.201 20.3748 135.965 19.0692 135.645 17.696C136.239 17.4387 137.001 17.2299 137.928 17.0717C138.854 16.9156 139.697 16.8354 140.455 16.8354Z" fill="#8D80D0"/>
<path d="M153.065 25.2812C153.413 25.7705 153.672 26.2852 153.84 26.8252C154.009 27.3651 154.093 27.9473 154.093 28.5716C154.093 30.1409 153.529 31.4403 152.4 32.4696C151.275 33.4926 149.894 34.0051 148.256 34.0051C146.447 34.0051 144.937 33.4441 143.724 32.3261C142.515 31.2082 141.913 29.8794 141.913 28.3438C142.402 28.1034 142.991 27.8946 143.682 27.7195C144.373 27.5402 144.948 27.4495 145.409 27.4495C145.409 28.6096 145.623 29.5419 146.057 30.2506C146.489 30.9593 147.079 31.3137 147.826 31.3137C148.353 31.3137 148.761 31.166 149.048 30.8665C149.338 30.5691 149.486 30.162 149.486 29.6431C149.486 29.2044 149.336 28.7783 149.039 28.3607C148.746 27.9389 148.089 27.3398 147.068 26.5636C146.31 25.9857 145.748 25.5216 145.383 25.1715C145.017 24.8171 144.705 24.4754 144.448 24.1422C144.082 23.6254 143.808 23.0875 143.623 22.5307C143.442 21.9738 143.353 21.379 143.353 20.742C143.353 19.2191 143.895 17.9788 144.979 17.0212C146.068 16.0594 147.493 15.5785 149.258 15.5785C150.825 15.5785 152.082 15.9561 153.032 16.7091C153.979 17.4642 154.607 18.5779 154.91 20.0502C154.472 20.3433 153.971 20.5711 153.411 20.7336C152.848 20.8918 152.109 20.9993 151.195 21.0542C151.061 20.1155 150.833 19.4406 150.513 19.0293C150.193 18.6137 149.751 18.4049 149.191 18.4049C148.841 18.4049 148.563 18.5188 148.357 18.7424C148.155 18.9618 148.054 19.255 148.054 19.6199C148.054 20.1219 148.205 20.6028 148.508 21.0626C148.812 21.5182 149.479 22.1341 150.513 22.9103C151.271 23.4735 151.823 23.9228 152.173 24.2603C152.526 24.5935 152.823 24.9331 153.065 25.2812Z" fill="#8D80D0"/>
<path d="M168 33.3216C167.562 33.4566 166.151 33.6127 163.772 33.7941C161.396 33.9797 159.409 34.0725 157.808 34.0725C157.431 31.6553 157.086 28.8309 156.772 25.6016C156.463 22.3745 156.292 19.6872 156.258 17.5442C158.6 17.1013 160.632 16.7828 162.357 16.5908C164.086 16.401 165.779 16.304 167.436 16.304C167.436 16.8735 167.398 17.4725 167.326 18.1011C167.259 18.7317 167.149 19.3898 166.998 20.0753C166.149 20.0753 165.267 20.0922 164.353 20.126C163.443 20.1555 162.494 20.1998 161.506 20.261C161.472 20.5942 161.447 20.9781 161.43 21.4168C161.417 21.8514 161.405 22.501 161.388 23.3658C162.163 23.1359 162.938 22.9672 163.713 22.8596C164.488 22.7541 165.28 22.6993 166.088 22.6993C166.21 23.235 166.301 23.7834 166.358 24.3445C166.419 24.9077 166.45 25.5721 166.45 26.3357C165.585 26.3357 164.726 26.3652 163.873 26.42C163.024 26.4707 162.197 26.5424 161.388 26.631C161.405 27.3186 161.426 27.9893 161.455 28.6474C161.489 29.3013 161.535 29.9214 161.599 30.512C162.037 30.512 162.963 30.4256 164.378 30.2505C165.793 30.0775 166.857 29.9193 167.571 29.778C167.693 30.0986 167.794 30.6217 167.874 31.3473C167.958 32.0687 168 32.7268 168 33.3216Z" fill="#8D80D0"/>
</svg>
